<mxfile host="app.diagrams.net" agent="Mozilla/5.0 (Windows NT 10.0; Win64; x64) AppleWebKit/537.36 (KHTML, like Gecko) Chrome/136.0.0.0 Safari/537.36 Edg/136.0.0.0" version="27.0.3">
  <diagram name="Page-1" id="2YBvvXClWsGukQMizWep">
    <mxGraphModel grid="1" page="1" gridSize="10" guides="1" tooltips="1" connect="1" arrows="1" fold="1" pageScale="1" pageWidth="850" pageHeight="1100" math="0" shadow="0">
      <root>
        <mxCell id="0" />
        <mxCell id="1" parent="0" />
        <mxCell id="UNIsCokYiMFCufqrGVKm-1" value="&lt;font style=&quot;font-size: 16px;&quot; face=&quot;Times New Roman&quot;&gt;Manage agenda / appointment&amp;nbsp;&lt;/font&gt;" style="rounded=1;whiteSpace=wrap;html=1;fillColor=#C3ABD0;strokeColor=#990099;" vertex="1" parent="1">
          <mxGeometry x="305" y="10" width="310" height="30" as="geometry" />
        </mxCell>
        <mxCell id="UNIsCokYiMFCufqrGVKm-2" value="&lt;b&gt;Add appointment&lt;/b&gt;" style="shape=umlFrame;whiteSpace=wrap;html=1;pointerEvents=0;width=180;height=20;fillColor=#C3ABD0;strokeColor=#990099;" vertex="1" parent="1">
          <mxGeometry x="200" y="50" width="520" height="410" as="geometry" />
        </mxCell>
        <mxCell id="UNIsCokYiMFCufqrGVKm-3" value=":User" style="shape=umlLifeline;perimeter=lifelinePerimeter;whiteSpace=wrap;html=1;container=0;dropTarget=0;collapsible=0;recursiveResize=0;outlineConnect=0;portConstraint=eastwest;newEdgeStyle={&quot;edgeStyle&quot;:&quot;elbowEdgeStyle&quot;,&quot;elbow&quot;:&quot;vertical&quot;,&quot;curved&quot;:0,&quot;rounded&quot;:0};fillColor=#e1d5e7;strokeColor=#990099;gradientColor=none;" vertex="1" parent="1">
          <mxGeometry x="240" y="90" width="100" height="360" as="geometry" />
        </mxCell>
        <mxCell id="UNIsCokYiMFCufqrGVKm-4" value="" style="html=1;points=[];perimeter=orthogonalPerimeter;outlineConnect=0;targetShapes=umlLifeline;portConstraint=eastwest;newEdgeStyle={&quot;edgeStyle&quot;:&quot;elbowEdgeStyle&quot;,&quot;elbow&quot;:&quot;vertical&quot;,&quot;curved&quot;:0,&quot;rounded&quot;:0};" vertex="1" parent="UNIsCokYiMFCufqrGVKm-3">
          <mxGeometry x="45" y="120" width="10" height="190" as="geometry" />
        </mxCell>
        <mxCell id="UNIsCokYiMFCufqrGVKm-5" value="Browser" style="shape=umlLifeline;perimeter=lifelinePerimeter;whiteSpace=wrap;html=1;container=0;dropTarget=0;collapsible=0;recursiveResize=0;outlineConnect=0;portConstraint=eastwest;newEdgeStyle={&quot;edgeStyle&quot;:&quot;elbowEdgeStyle&quot;,&quot;elbow&quot;:&quot;vertical&quot;,&quot;curved&quot;:0,&quot;rounded&quot;:0};fillColor=#e1d5e7;strokeColor=#990099;gradientColor=none;" vertex="1" parent="1">
          <mxGeometry x="360" y="90" width="100" height="300" as="geometry" />
        </mxCell>
        <mxCell id="UNIsCokYiMFCufqrGVKm-7" value="fill the form" style="html=1;verticalAlign=bottom;endArrow=block;curved=0;rounded=0;entryX=0.5;entryY=0.053;entryDx=0;entryDy=0;entryPerimeter=0;" edge="1" parent="1" source="UNIsCokYiMFCufqrGVKm-4" target="UNIsCokYiMFCufqrGVKm-6">
          <mxGeometry width="80" relative="1" as="geometry">
            <mxPoint x="300" y="230" as="sourcePoint" />
            <mxPoint x="380" y="230" as="targetPoint" />
          </mxGeometry>
        </mxCell>
        <mxCell id="UNIsCokYiMFCufqrGVKm-8" value="Application" style="shape=umlLifeline;perimeter=lifelinePerimeter;whiteSpace=wrap;html=1;container=0;dropTarget=0;collapsible=0;recursiveResize=0;outlineConnect=0;portConstraint=eastwest;newEdgeStyle={&quot;edgeStyle&quot;:&quot;elbowEdgeStyle&quot;,&quot;elbow&quot;:&quot;vertical&quot;,&quot;curved&quot;:0,&quot;rounded&quot;:0};fillColor=#e1d5e7;strokeColor=#990099;gradientColor=none;" vertex="1" parent="1">
          <mxGeometry x="480" y="90" width="100" height="300" as="geometry" />
        </mxCell>
        <mxCell id="UNIsCokYiMFCufqrGVKm-10" value="BDD" style="shape=umlLifeline;perimeter=lifelinePerimeter;whiteSpace=wrap;html=1;container=0;dropTarget=0;collapsible=0;recursiveResize=0;outlineConnect=0;portConstraint=eastwest;newEdgeStyle={&quot;edgeStyle&quot;:&quot;elbowEdgeStyle&quot;,&quot;elbow&quot;:&quot;vertical&quot;,&quot;curved&quot;:0,&quot;rounded&quot;:0};fillColor=#e1d5e7;strokeColor=#990099;gradientColor=none;" vertex="1" parent="1">
          <mxGeometry x="600" y="90" width="100" height="300" as="geometry" />
        </mxCell>
        <mxCell id="UNIsCokYiMFCufqrGVKm-11" value="" style="html=1;points=[];perimeter=orthogonalPerimeter;outlineConnect=0;targetShapes=umlLifeline;portConstraint=eastwest;newEdgeStyle={&quot;edgeStyle&quot;:&quot;elbowEdgeStyle&quot;,&quot;elbow&quot;:&quot;vertical&quot;,&quot;curved&quot;:0,&quot;rounded&quot;:0};" vertex="1" parent="UNIsCokYiMFCufqrGVKm-10">
          <mxGeometry x="45" y="210" width="10" height="20" as="geometry" />
        </mxCell>
        <mxCell id="UNIsCokYiMFCufqrGVKm-12" value="POST RDV" style="html=1;verticalAlign=bottom;endArrow=block;curved=0;rounded=0;" edge="1" parent="1" source="UNIsCokYiMFCufqrGVKm-6" target="UNIsCokYiMFCufqrGVKm-8">
          <mxGeometry width="80" relative="1" as="geometry">
            <mxPoint x="414.87925925925924" y="250" as="sourcePoint" />
            <mxPoint x="495.12" y="250" as="targetPoint" />
          </mxGeometry>
        </mxCell>
        <mxCell id="UNIsCokYiMFCufqrGVKm-13" value="insert into&amp;nbsp;&lt;div&gt;appointment table&lt;/div&gt;" style="html=1;verticalAlign=bottom;endArrow=block;curved=0;rounded=0;" edge="1" parent="1" source="UNIsCokYiMFCufqrGVKm-9" target="UNIsCokYiMFCufqrGVKm-10">
          <mxGeometry width="80" relative="1" as="geometry">
            <mxPoint x="540" y="260" as="sourcePoint" />
            <mxPoint x="620" y="260" as="targetPoint" />
          </mxGeometry>
        </mxCell>
        <mxCell id="UNIsCokYiMFCufqrGVKm-14" value="msg ok" style="html=1;verticalAlign=bottom;endArrow=open;dashed=1;endSize=8;curved=0;rounded=0;" edge="1" parent="1" target="UNIsCokYiMFCufqrGVKm-5">
          <mxGeometry relative="1" as="geometry">
            <mxPoint x="530" y="310" as="sourcePoint" />
            <mxPoint x="450" y="310" as="targetPoint" />
          </mxGeometry>
        </mxCell>
        <mxCell id="UNIsCokYiMFCufqrGVKm-15" value="ok" style="html=1;verticalAlign=bottom;endArrow=open;dashed=1;endSize=8;curved=0;rounded=0;" edge="1" parent="1" source="UNIsCokYiMFCufqrGVKm-9" target="UNIsCokYiMFCufqrGVKm-8">
          <mxGeometry relative="1" as="geometry">
            <mxPoint x="650" y="299.6300000000001" as="sourcePoint" />
            <mxPoint x="570" y="299.6300000000001" as="targetPoint" />
          </mxGeometry>
        </mxCell>
        <mxCell id="UNIsCokYiMFCufqrGVKm-16" value="Confirm msg" style="html=1;verticalAlign=bottom;endArrow=open;dashed=1;endSize=8;curved=0;rounded=0;" edge="1" parent="1" target="UNIsCokYiMFCufqrGVKm-3">
          <mxGeometry x="-0.002" relative="1" as="geometry">
            <mxPoint x="410" y="330" as="sourcePoint" />
            <mxPoint x="330" y="330" as="targetPoint" />
            <mxPoint as="offset" />
          </mxGeometry>
        </mxCell>
        <mxCell id="UNIsCokYiMFCufqrGVKm-17" value="" style="html=1;verticalAlign=bottom;endArrow=block;curved=0;rounded=0;" edge="1" parent="1" target="UNIsCokYiMFCufqrGVKm-6">
          <mxGeometry width="80" relative="1" as="geometry">
            <mxPoint x="414.87925925925924" y="250" as="sourcePoint" />
            <mxPoint x="530" y="250" as="targetPoint" />
          </mxGeometry>
        </mxCell>
        <mxCell id="UNIsCokYiMFCufqrGVKm-6" value="" style="html=1;points=[];perimeter=orthogonalPerimeter;outlineConnect=0;targetShapes=umlLifeline;portConstraint=eastwest;newEdgeStyle={&quot;edgeStyle&quot;:&quot;elbowEdgeStyle&quot;,&quot;elbow&quot;:&quot;vertical&quot;,&quot;curved&quot;:0,&quot;rounded&quot;:0};" vertex="1" parent="1">
          <mxGeometry x="405" y="230" width="10" height="100" as="geometry" />
        </mxCell>
        <mxCell id="UNIsCokYiMFCufqrGVKm-18" value="" style="html=1;verticalAlign=bottom;endArrow=open;dashed=1;endSize=8;curved=0;rounded=0;" edge="1" parent="1">
          <mxGeometry relative="1" as="geometry">
            <mxPoint x="650" y="320.0000000000001" as="sourcePoint" />
            <mxPoint x="535" y="320.0000000000001" as="targetPoint" />
          </mxGeometry>
        </mxCell>
        <mxCell id="UNIsCokYiMFCufqrGVKm-9" value="" style="html=1;points=[];perimeter=orthogonalPerimeter;outlineConnect=0;targetShapes=umlLifeline;portConstraint=eastwest;newEdgeStyle={&quot;edgeStyle&quot;:&quot;elbowEdgeStyle&quot;,&quot;elbow&quot;:&quot;vertical&quot;,&quot;curved&quot;:0,&quot;rounded&quot;:0};" vertex="1" parent="1">
          <mxGeometry x="525" y="270" width="10" height="60" as="geometry" />
        </mxCell>
        <mxCell id="UNIsCokYiMFCufqrGVKm-19" value="ref" style="shape=umlFrame;whiteSpace=wrap;html=1;pointerEvents=0;swimlaneFillColor=default;strokeColor=#990099;" vertex="1" parent="1">
          <mxGeometry x="250" y="150" width="430" height="50" as="geometry" />
        </mxCell>
        <mxCell id="UNIsCokYiMFCufqrGVKm-20" value="LOGIN" style="text;html=1;align=center;verticalAlign=middle;whiteSpace=wrap;rounded=0;" vertex="1" parent="1">
          <mxGeometry x="425" y="160" width="60" height="30" as="geometry" />
        </mxCell>
        <mxCell id="UNIsCokYiMFCufqrGVKm-22" value="&lt;b&gt;Update appointment&lt;/b&gt;" style="shape=umlFrame;whiteSpace=wrap;html=1;pointerEvents=0;width=165;height=20;fillColor=#C3ABD0;strokeColor=#990099;" vertex="1" parent="1">
          <mxGeometry x="200" y="500" width="520" height="400" as="geometry" />
        </mxCell>
        <mxCell id="UNIsCokYiMFCufqrGVKm-23" value=":User" style="shape=umlLifeline;perimeter=lifelinePerimeter;whiteSpace=wrap;html=1;container=0;dropTarget=0;collapsible=0;recursiveResize=0;outlineConnect=0;portConstraint=eastwest;newEdgeStyle={&quot;edgeStyle&quot;:&quot;elbowEdgeStyle&quot;,&quot;elbow&quot;:&quot;vertical&quot;,&quot;curved&quot;:0,&quot;rounded&quot;:0};fillColor=#e1d5e7;strokeColor=#990099;gradientColor=none;" vertex="1" parent="1">
          <mxGeometry x="220" y="530" width="100" height="350" as="geometry" />
        </mxCell>
        <mxCell id="UNIsCokYiMFCufqrGVKm-24" value="" style="html=1;points=[];perimeter=orthogonalPerimeter;outlineConnect=0;targetShapes=umlLifeline;portConstraint=eastwest;newEdgeStyle={&quot;edgeStyle&quot;:&quot;elbowEdgeStyle&quot;,&quot;elbow&quot;:&quot;vertical&quot;,&quot;curved&quot;:0,&quot;rounded&quot;:0};" vertex="1" parent="UNIsCokYiMFCufqrGVKm-23">
          <mxGeometry x="45" y="130" width="10" height="190" as="geometry" />
        </mxCell>
        <mxCell id="UNIsCokYiMFCufqrGVKm-25" value="Browser" style="shape=umlLifeline;perimeter=lifelinePerimeter;whiteSpace=wrap;html=1;container=0;dropTarget=0;collapsible=0;recursiveResize=0;outlineConnect=0;portConstraint=eastwest;newEdgeStyle={&quot;edgeStyle&quot;:&quot;elbowEdgeStyle&quot;,&quot;elbow&quot;:&quot;vertical&quot;,&quot;curved&quot;:0,&quot;rounded&quot;:0};fillColor=#e1d5e7;strokeColor=#990099;gradientColor=none;" vertex="1" parent="1">
          <mxGeometry x="350" y="530" width="100" height="350" as="geometry" />
        </mxCell>
        <mxCell id="UNIsCokYiMFCufqrGVKm-26" value="" style="html=1;points=[];perimeter=orthogonalPerimeter;outlineConnect=0;targetShapes=umlLifeline;portConstraint=eastwest;newEdgeStyle={&quot;edgeStyle&quot;:&quot;elbowEdgeStyle&quot;,&quot;elbow&quot;:&quot;vertical&quot;,&quot;curved&quot;:0,&quot;rounded&quot;:0};" vertex="1" parent="UNIsCokYiMFCufqrGVKm-25">
          <mxGeometry x="45" y="150" width="10" height="100" as="geometry" />
        </mxCell>
        <mxCell id="UNIsCokYiMFCufqrGVKm-27" value="select appointment" style="html=1;verticalAlign=bottom;endArrow=block;curved=0;rounded=0;entryX=0.5;entryY=0.053;entryDx=0;entryDy=0;entryPerimeter=0;" edge="1" parent="1">
          <mxGeometry width="80" relative="1" as="geometry">
            <mxPoint x="275" y="680" as="sourcePoint" />
            <mxPoint x="400" y="680.3" as="targetPoint" />
          </mxGeometry>
        </mxCell>
        <mxCell id="UNIsCokYiMFCufqrGVKm-28" value="Application" style="shape=umlLifeline;perimeter=lifelinePerimeter;whiteSpace=wrap;html=1;container=0;dropTarget=0;collapsible=0;recursiveResize=0;outlineConnect=0;portConstraint=eastwest;newEdgeStyle={&quot;edgeStyle&quot;:&quot;elbowEdgeStyle&quot;,&quot;elbow&quot;:&quot;vertical&quot;,&quot;curved&quot;:0,&quot;rounded&quot;:0};fillColor=#e1d5e7;strokeColor=#990099;gradientColor=none;" vertex="1" parent="1">
          <mxGeometry x="470" y="530" width="100" height="350" as="geometry" />
        </mxCell>
        <mxCell id="UNIsCokYiMFCufqrGVKm-29" value="" style="html=1;points=[];perimeter=orthogonalPerimeter;outlineConnect=0;targetShapes=umlLifeline;portConstraint=eastwest;newEdgeStyle={&quot;edgeStyle&quot;:&quot;elbowEdgeStyle&quot;,&quot;elbow&quot;:&quot;vertical&quot;,&quot;curved&quot;:0,&quot;rounded&quot;:0};" vertex="1" parent="UNIsCokYiMFCufqrGVKm-28">
          <mxGeometry x="45" y="170" width="10" height="60" as="geometry" />
        </mxCell>
        <mxCell id="UNIsCokYiMFCufqrGVKm-30" value="BDD" style="shape=umlLifeline;perimeter=lifelinePerimeter;whiteSpace=wrap;html=1;container=0;dropTarget=0;collapsible=0;recursiveResize=0;outlineConnect=0;portConstraint=eastwest;newEdgeStyle={&quot;edgeStyle&quot;:&quot;elbowEdgeStyle&quot;,&quot;elbow&quot;:&quot;vertical&quot;,&quot;curved&quot;:0,&quot;rounded&quot;:0};fillColor=#e1d5e7;strokeColor=#990099;gradientColor=none;" vertex="1" parent="1">
          <mxGeometry x="590" y="530" width="100" height="350" as="geometry" />
        </mxCell>
        <mxCell id="UNIsCokYiMFCufqrGVKm-31" value="" style="html=1;points=[];perimeter=orthogonalPerimeter;outlineConnect=0;targetShapes=umlLifeline;portConstraint=eastwest;newEdgeStyle={&quot;edgeStyle&quot;:&quot;elbowEdgeStyle&quot;,&quot;elbow&quot;:&quot;vertical&quot;,&quot;curved&quot;:0,&quot;rounded&quot;:0};" vertex="1" parent="UNIsCokYiMFCufqrGVKm-30">
          <mxGeometry x="45" y="190" width="10" height="20" as="geometry" />
        </mxCell>
        <mxCell id="UNIsCokYiMFCufqrGVKm-36" value="Confirm msg" style="html=1;verticalAlign=bottom;endArrow=open;dashed=1;endSize=8;curved=0;rounded=0;" edge="1" parent="1">
          <mxGeometry x="-0.002" relative="1" as="geometry">
            <mxPoint x="400" y="840" as="sourcePoint" />
            <mxPoint x="269.5" y="840" as="targetPoint" />
            <mxPoint as="offset" />
          </mxGeometry>
        </mxCell>
        <mxCell id="UNIsCokYiMFCufqrGVKm-38" value="&lt;b&gt;Delete appointment&lt;/b&gt;" style="shape=umlFrame;whiteSpace=wrap;html=1;pointerEvents=0;width=165;height=20;fillColor=#C3ABD0;strokeColor=#990099;" vertex="1" parent="1">
          <mxGeometry x="197.5" y="930" width="515" height="470" as="geometry" />
        </mxCell>
        <mxCell id="UNIsCokYiMFCufqrGVKm-39" value=":User" style="shape=umlLifeline;perimeter=lifelinePerimeter;whiteSpace=wrap;html=1;container=0;dropTarget=0;collapsible=0;recursiveResize=0;outlineConnect=0;portConstraint=eastwest;newEdgeStyle={&quot;edgeStyle&quot;:&quot;elbowEdgeStyle&quot;,&quot;elbow&quot;:&quot;vertical&quot;,&quot;curved&quot;:0,&quot;rounded&quot;:0};fillColor=#e1d5e7;strokeColor=#990099;gradientColor=none;" vertex="1" parent="1">
          <mxGeometry x="225" y="960" width="90" height="410" as="geometry" />
        </mxCell>
        <mxCell id="UNIsCokYiMFCufqrGVKm-79" value="" style="html=1;points=[];perimeter=orthogonalPerimeter;outlineConnect=0;targetShapes=umlLifeline;portConstraint=eastwest;newEdgeStyle={&quot;edgeStyle&quot;:&quot;elbowEdgeStyle&quot;,&quot;elbow&quot;:&quot;vertical&quot;,&quot;curved&quot;:0,&quot;rounded&quot;:0};" vertex="1" parent="UNIsCokYiMFCufqrGVKm-39">
          <mxGeometry x="40" y="180" width="10" height="190" as="geometry" />
        </mxCell>
        <mxCell id="UNIsCokYiMFCufqrGVKm-84" value="Confirm msg" style="html=1;verticalAlign=bottom;endArrow=open;dashed=1;endSize=8;curved=0;rounded=0;" edge="1" parent="UNIsCokYiMFCufqrGVKm-39">
          <mxGeometry x="-0.002" relative="1" as="geometry">
            <mxPoint x="180" y="360" as="sourcePoint" />
            <mxPoint x="49.5" y="360" as="targetPoint" />
            <mxPoint as="offset" />
          </mxGeometry>
        </mxCell>
        <mxCell id="UNIsCokYiMFCufqrGVKm-41" value="Browser" style="shape=umlLifeline;perimeter=lifelinePerimeter;whiteSpace=wrap;html=1;container=0;dropTarget=0;collapsible=0;recursiveResize=0;outlineConnect=0;portConstraint=eastwest;newEdgeStyle={&quot;edgeStyle&quot;:&quot;elbowEdgeStyle&quot;,&quot;elbow&quot;:&quot;vertical&quot;,&quot;curved&quot;:0,&quot;rounded&quot;:0};fillColor=#e1d5e7;strokeColor=#990099;gradientColor=none;" vertex="1" parent="1">
          <mxGeometry x="350" y="960" width="100" height="410" as="geometry" />
        </mxCell>
        <mxCell id="UNIsCokYiMFCufqrGVKm-80" value="" style="html=1;points=[];perimeter=orthogonalPerimeter;outlineConnect=0;targetShapes=umlLifeline;portConstraint=eastwest;newEdgeStyle={&quot;edgeStyle&quot;:&quot;elbowEdgeStyle&quot;,&quot;elbow&quot;:&quot;vertical&quot;,&quot;curved&quot;:0,&quot;rounded&quot;:0};" vertex="1" parent="UNIsCokYiMFCufqrGVKm-41">
          <mxGeometry x="45" y="210" width="10" height="150" as="geometry" />
        </mxCell>
        <mxCell id="UNIsCokYiMFCufqrGVKm-44" value="Application" style="shape=umlLifeline;perimeter=lifelinePerimeter;whiteSpace=wrap;html=1;container=0;dropTarget=0;collapsible=0;recursiveResize=0;outlineConnect=0;portConstraint=eastwest;newEdgeStyle={&quot;edgeStyle&quot;:&quot;elbowEdgeStyle&quot;,&quot;elbow&quot;:&quot;vertical&quot;,&quot;curved&quot;:0,&quot;rounded&quot;:0};fillColor=#e1d5e7;strokeColor=#990099;gradientColor=none;" vertex="1" parent="1">
          <mxGeometry x="470" y="960" width="100" height="410" as="geometry" />
        </mxCell>
        <mxCell id="UNIsCokYiMFCufqrGVKm-82" value="" style="html=1;points=[];perimeter=orthogonalPerimeter;outlineConnect=0;targetShapes=umlLifeline;portConstraint=eastwest;newEdgeStyle={&quot;edgeStyle&quot;:&quot;elbowEdgeStyle&quot;,&quot;elbow&quot;:&quot;vertical&quot;,&quot;curved&quot;:0,&quot;rounded&quot;:0};" vertex="1" parent="UNIsCokYiMFCufqrGVKm-44">
          <mxGeometry x="45" y="220" width="10" height="60" as="geometry" />
        </mxCell>
        <mxCell id="UNIsCokYiMFCufqrGVKm-46" value="BDD" style="shape=umlLifeline;perimeter=lifelinePerimeter;whiteSpace=wrap;html=1;container=0;dropTarget=0;collapsible=0;recursiveResize=0;outlineConnect=0;portConstraint=eastwest;newEdgeStyle={&quot;edgeStyle&quot;:&quot;elbowEdgeStyle&quot;,&quot;elbow&quot;:&quot;vertical&quot;,&quot;curved&quot;:0,&quot;rounded&quot;:0};fillColor=#e1d5e7;strokeColor=#990099;gradientColor=none;" vertex="1" parent="1">
          <mxGeometry x="590" y="960" width="100" height="410" as="geometry" />
        </mxCell>
        <mxCell id="UNIsCokYiMFCufqrGVKm-83" value="" style="html=1;points=[];perimeter=orthogonalPerimeter;outlineConnect=0;targetShapes=umlLifeline;portConstraint=eastwest;newEdgeStyle={&quot;edgeStyle&quot;:&quot;elbowEdgeStyle&quot;,&quot;elbow&quot;:&quot;vertical&quot;,&quot;curved&quot;:0,&quot;rounded&quot;:0};" vertex="1" parent="UNIsCokYiMFCufqrGVKm-46">
          <mxGeometry x="45" y="240" width="10" height="30" as="geometry" />
        </mxCell>
        <mxCell id="UNIsCokYiMFCufqrGVKm-49" value="ref" style="shape=umlFrame;whiteSpace=wrap;html=1;pointerEvents=0;swimlaneFillColor=default;strokeColor=#990099;" vertex="1" parent="1">
          <mxGeometry x="240" y="590" width="430" height="50" as="geometry" />
        </mxCell>
        <mxCell id="UNIsCokYiMFCufqrGVKm-50" value="ref" style="shape=umlFrame;whiteSpace=wrap;html=1;pointerEvents=0;swimlaneFillColor=default;strokeColor=#990099;" vertex="1" parent="1">
          <mxGeometry x="240" y="1020" width="430" height="50" as="geometry" />
        </mxCell>
        <mxCell id="UNIsCokYiMFCufqrGVKm-52" value="LOGIN" style="text;html=1;align=center;verticalAlign=middle;whiteSpace=wrap;rounded=0;" vertex="1" parent="1">
          <mxGeometry x="430" y="600" width="60" height="30" as="geometry" />
        </mxCell>
        <mxCell id="UNIsCokYiMFCufqrGVKm-53" value="LOGIN" style="text;html=1;align=center;verticalAlign=middle;whiteSpace=wrap;rounded=0;" vertex="1" parent="1">
          <mxGeometry x="420" y="1030" width="60" height="30" as="geometry" />
        </mxCell>
        <mxCell id="UNIsCokYiMFCufqrGVKm-55" value="POST RDV" style="html=1;verticalAlign=bottom;endArrow=block;curved=0;rounded=0;" edge="1" parent="1">
          <mxGeometry width="80" relative="1" as="geometry">
            <mxPoint x="405" y="699.5" as="sourcePoint" />
            <mxPoint x="520" y="699.5" as="targetPoint" />
          </mxGeometry>
        </mxCell>
        <mxCell id="UNIsCokYiMFCufqrGVKm-56" value="&lt;div&gt;msg&lt;/div&gt;Confirmation update&amp;nbsp;" style="html=1;verticalAlign=bottom;endArrow=open;dashed=1;endSize=8;curved=0;rounded=0;entryX=0.5;entryY=0.8;entryDx=0;entryDy=0;entryPerimeter=0;" edge="1" parent="1" source="UNIsCokYiMFCufqrGVKm-28" target="UNIsCokYiMFCufqrGVKm-26">
          <mxGeometry relative="1" as="geometry">
            <mxPoint x="490" y="760" as="sourcePoint" />
            <mxPoint x="410" y="760" as="targetPoint" />
          </mxGeometry>
        </mxCell>
        <mxCell id="UNIsCokYiMFCufqrGVKm-57" value="Update the information" style="html=1;verticalAlign=bottom;endArrow=block;curved=0;rounded=0;" edge="1" parent="1">
          <mxGeometry width="80" relative="1" as="geometry">
            <mxPoint x="525" y="720" as="sourcePoint" />
            <mxPoint x="640" y="720" as="targetPoint" />
          </mxGeometry>
        </mxCell>
        <mxCell id="UNIsCokYiMFCufqrGVKm-58" value="OK" style="html=1;verticalAlign=bottom;endArrow=open;dashed=1;endSize=8;curved=0;rounded=0;" edge="1" parent="1" target="UNIsCokYiMFCufqrGVKm-28">
          <mxGeometry x="0.0163" y="10" relative="1" as="geometry">
            <mxPoint x="642.5" y="740" as="sourcePoint" />
            <mxPoint x="562.5" y="740" as="targetPoint" />
            <mxPoint x="1" as="offset" />
          </mxGeometry>
        </mxCell>
        <mxCell id="UNIsCokYiMFCufqrGVKm-88" value="OK" style="html=1;verticalAlign=bottom;endArrow=open;dashed=1;endSize=8;curved=0;rounded=0;" edge="1" parent="1">
          <mxGeometry x="0.0163" y="10" relative="1" as="geometry">
            <mxPoint x="640" y="1230" as="sourcePoint" />
            <mxPoint x="525" y="1230" as="targetPoint" />
            <mxPoint x="1" as="offset" />
          </mxGeometry>
        </mxCell>
        <mxCell id="UNIsCokYiMFCufqrGVKm-85" value="POST RDV" style="html=1;verticalAlign=bottom;endArrow=block;curved=0;rounded=0;entryX=0.453;entryY=0.538;entryDx=0;entryDy=0;entryPerimeter=0;" edge="1" parent="1" target="UNIsCokYiMFCufqrGVKm-44">
          <mxGeometry width="80" relative="1" as="geometry">
            <mxPoint x="400" y="1181" as="sourcePoint" />
            <mxPoint x="530" y="1179.5" as="targetPoint" />
          </mxGeometry>
        </mxCell>
        <mxCell id="UNIsCokYiMFCufqrGVKm-87" value="Update the information" style="html=1;verticalAlign=bottom;endArrow=block;curved=0;rounded=0;" edge="1" parent="1">
          <mxGeometry width="80" relative="1" as="geometry">
            <mxPoint x="525" y="1200" as="sourcePoint" />
            <mxPoint x="639.5" y="1200" as="targetPoint" />
          </mxGeometry>
        </mxCell>
        <mxCell id="UNIsCokYiMFCufqrGVKm-81" value="select appointment" style="html=1;verticalAlign=bottom;endArrow=block;curved=0;rounded=0;entryX=0.5;entryY=0.053;entryDx=0;entryDy=0;entryPerimeter=0;" edge="1" parent="1">
          <mxGeometry width="80" relative="1" as="geometry">
            <mxPoint x="275" y="1170" as="sourcePoint" />
            <mxPoint x="405" y="1170" as="targetPoint" />
          </mxGeometry>
        </mxCell>
        <mxCell id="UNIsCokYiMFCufqrGVKm-86" value="&lt;div&gt;msg&lt;/div&gt;Confirmation update&amp;nbsp;" style="html=1;verticalAlign=bottom;endArrow=open;dashed=1;endSize=8;curved=0;rounded=0;" edge="1" parent="1" target="UNIsCokYiMFCufqrGVKm-41">
          <mxGeometry relative="1" as="geometry">
            <mxPoint x="525" y="1240" as="sourcePoint" />
            <mxPoint x="415" y="1240" as="targetPoint" />
          </mxGeometry>
        </mxCell>
      </root>
    </mxGraphModel>
  </diagram>
</mxfile>
